<?xml version="1.0" encoding="UTF-8"?>
<svg id="Layer_1" data-name="Layer 1" xmlns="http://www.w3.org/2000/svg" viewBox="0 0 360 69.88">
  <defs>
    <style>
      .cls-1 {
        fill: #fbc24f;
      }

      .cls-2 {
        fill: #1f336b;
      }
    </style>
  </defs>
  <g>
    <polygon class="cls-1" points="12.81 .53 68.82 .53 68.82 56.54 12.81 .53"/>
    <polygon class="cls-2" points="0 13.35 56.01 13.35 56.01 69.36 0 13.35"/>
  </g>
  <g>
    <g>
      <path class="cls-2" d="M121.51,32.43c9,0,15.28-6.67,15.28-16.21S130.53,0,121.56,0s-15.2,6.67-15.2,16.21,6.23,16.21,15.16,16.21ZM112.49,16.21c0-6.41,3.56-10.55,9.07-10.55s9.07,4.14,9.07,10.55-3.56,10.55-9.07,10.55-9.07-4.14-9.07-10.55Z"/>
      <rect class="cls-2" x="141.18" y=".55" width="5.88" height="31.37"/>
      <polygon class="cls-2" points="157.26 10.56 171.37 31.82 171.44 31.92 177.13 31.92 177.13 .55 171.33 .55 171.33 21.91 157.26 .65 157.19 .55 151.46 .55 151.46 31.92 157.26 31.92 157.26 10.56"/>
      <polygon class="cls-2" points="189.24 31.92 195.12 31.92 195.12 6.01 204.17 6.01 204.17 .55 180.19 .55 180.19 6.01 189.24 6.01 189.24 31.92"/>
      <path class="cls-2" d="M89.71,32.42c-2.95,0-5.44-.81-7.49-2.42-2.05-1.61-3.52-3.92-4.42-6.93l5.64-2.33c.62,1.92,1.45,3.34,2.48,4.26,1.04.93,2.32,1.39,3.83,1.39,1.8,0,3.25-.64,4.36-1.92,1.11-1.28,1.66-2.98,1.66-5.11V.53h6.1v19.03c0,2.59-.51,4.84-1.52,6.77-1.01,1.93-2.43,3.43-4.25,4.49-1.83,1.07-3.96,1.6-6.4,1.6Z"/>
    </g>
    <g>
      <g>
        <path class="cls-2" d="M121.56,37.41c-8.95,0-15.2,6.67-15.2,16.21s6.23,16.21,15.16,16.21,15.28-6.67,15.28-16.21-6.27-16.21-15.24-16.21ZM130.63,53.63c0,6.41-3.56,10.55-9.07,10.55s-9.07-4.14-9.07-10.55,3.56-10.55,9.07-10.55,9.07,4.14,9.07,10.55Z"/>
        <path class="cls-2" d="M156.64,62.18l-9.76-24.07-.06-.15h-5.63v31.37h5.71v-11.31c0-3.04-.03-5.26-.15-6.93l7.18,18.09.06.15h5.31l7.3-18.33c-.12,1.75-.12,3.96-.12,8.58v9.75h5.71v-31.37h-5.72l-9.82,24.22Z"/>
        <path class="cls-2" d="M192.26,62.18l-9.76-24.07-.06-.15h-5.63v31.37h5.71v-11.31c0-3.04-.03-5.26-.15-6.93l7.18,18.09.06.15h5.31l7.3-18.33c-.12,1.75-.12,3.96-.12,8.58v9.75h5.71v-31.37h-5.72l-9.82,24.22Z"/>
        <rect class="cls-2" x="212.28" y="37.96" width="5.88" height="31.37"/>
        <path class="cls-2" d="M237.01,51.49l-4.86-1.06c-2.51-.58-3.58-1.71-3.58-3.79,0-2.44,2.02-3.95,5.27-3.95,2.95,0,4.72,1.46,4.84,4v.22h5.89v-.24c-.18-5.72-4.25-9.27-10.64-9.27s-11.23,3.87-11.23,9.41c0,4.79,2.83,7.94,8.17,9.11l4.91,1.1c2.39.52,3.41,1.6,3.41,3.62,0,2.41-2.16,3.91-5.64,3.91s-5.35-1.48-5.39-3.96v-.23h-5.88v.24c.13,5.63,4.55,9.28,11.27,9.28s11.52-3.81,11.52-9.7c0-4.67-2.63-7.52-8.05-8.69Z"/>
        <path class="cls-2" d="M262.43,51.49l-4.86-1.06c-2.51-.58-3.58-1.71-3.58-3.79,0-2.44,2.02-3.95,5.27-3.95,2.95,0,4.72,1.46,4.84,4v.22h5.89v-.24c-.18-5.72-4.25-9.27-10.64-9.27s-11.23,3.87-11.23,9.41c0,4.79,2.83,7.94,8.17,9.11l4.91,1.1c2.39.52,3.41,1.6,3.41,3.62,0,2.41-2.16,3.91-5.64,3.91s-5.35-1.48-5.39-3.96v-.23h-5.88v.24c.13,5.63,4.55,9.28,11.27,9.28s11.52-3.81,11.52-9.7c0-4.67-2.63-7.52-8.05-8.69Z"/>
        <rect class="cls-2" x="274.56" y="37.96" width="5.88" height="31.37"/>
        <path class="cls-2" d="M300,37.41c-8.95,0-15.2,6.67-15.2,16.21s6.23,16.21,15.16,16.21,15.28-6.67,15.28-16.21-6.27-16.21-15.24-16.21ZM309.07,53.63c0,6.41-3.56,10.55-9.07,10.55s-9.07-4.14-9.07-10.55,3.56-10.55,9.07-10.55,9.07,4.14,9.07,10.55Z"/>
        <polygon class="cls-2" points="339.47 37.96 339.47 59.32 325.4 38.06 325.33 37.96 319.6 37.96 319.6 69.33 325.39 69.33 325.39 47.97 339.5 69.23 339.57 69.33 345.26 69.33 345.26 37.96 339.47 37.96"/>
        <path class="cls-2" d="M92.25,69.88c-2.19,0-4.24-.42-6.15-1.26-1.91-.83-3.57-2-4.99-3.49-1.42-1.49-2.52-3.23-3.33-5.22-.8-1.99-1.2-4.14-1.2-6.45s.4-4.51,1.2-6.5c.8-1.99,1.91-3.73,3.35-5.22,1.43-1.49,3.09-2.65,4.99-3.49,1.89-.83,3.94-1.25,6.12-1.25,1.63,0,3.2.24,4.72.73,1.51.49,2.92,1.17,4.23,2.05,1.31.88,2.42,1.95,3.35,3.19l-4.13,4.42c-1.07-1.43-2.29-2.51-3.68-3.24-1.39-.73-2.88-1.09-4.48-1.09-1.32,0-2.55.27-3.7.8-1.15.53-2.15,1.26-2.99,2.19s-1.5,2.02-1.98,3.28c-.48,1.26-.72,2.64-.72,4.13s.25,2.81.74,4.06c.49,1.25,1.16,2.34,2.02,3.28.86.94,1.87,1.67,3.05,2.19,1.18.52,2.44.78,3.79.78,1.54,0,2.99-.35,4.34-1.05,1.35-.7,2.52-1.7,3.54-3.01l4.04,4.29c-.93,1.22-2.04,2.27-3.33,3.15-1.29.88-2.69,1.56-4.19,2.03-1.5.47-3.04.71-4.61.71Z"/>
      </g>
      <g>
        <path class="cls-2" d="M348.19,37.95h4.67v.6h-2.01v5.92h-.66v-5.92h-2v-.6Z"/>
        <path class="cls-2" d="M353.94,44.47v-6.52h.65l2.38,5.75,2.38-5.75h.65v6.52h-.65v-3.1c0-1.14.02-1.64.06-2.09l-2.12,5.18h-.63l-2.12-5.16c.04.25.05.97.05,1.96v3.2h-.65Z"/>
      </g>
    </g>
  </g>
</svg>